<mxfile host="app.diagrams.net" agent="Mozilla/5.0 (Windows NT 10.0; Win64; x64) AppleWebKit/537.36 (KHTML, like Gecko) Chrome/129.0.0.0 Safari/537.36 Edg/129.0.0.0" version="24.7.17" pages="2">
  <diagram name="Контекстная DFD" id="ig8W8mlX3OGnP-8Zp7Zg">
    <mxGraphModel grid="1" page="1" gridSize="10" guides="1" tooltips="1" connect="1" arrows="1" fold="1" pageScale="1" pageWidth="827" pageHeight="1169" math="0" shadow="0">
      <root>
        <mxCell id="0" />
        <mxCell id="1" parent="0" />
        <mxCell id="LKZireLHQSJAJ8BlOY7b-15" style="rounded=0;orthogonalLoop=1;jettySize=auto;html=1;exitX=0.071;exitY=0.008;exitDx=0;exitDy=0;exitPerimeter=0;entryX=0.117;entryY=1.022;entryDx=0;entryDy=0;entryPerimeter=0;" edge="1" parent="1" source="LKZireLHQSJAJ8BlOY7b-1" target="LKZireLHQSJAJ8BlOY7b-5">
          <mxGeometry relative="1" as="geometry">
            <mxPoint x="280" y="200" as="targetPoint" />
          </mxGeometry>
        </mxCell>
        <mxCell id="LKZireLHQSJAJ8BlOY7b-16" value="Статус&amp;nbsp;&lt;div&gt;авторизации&lt;/div&gt;" style="edgeLabel;html=1;align=center;verticalAlign=middle;resizable=0;points=[];fontSize=9;" connectable="0" vertex="1" parent="LKZireLHQSJAJ8BlOY7b-15">
          <mxGeometry x="0.2477" y="-4" relative="1" as="geometry">
            <mxPoint as="offset" />
          </mxGeometry>
        </mxCell>
        <mxCell id="QmqMO9AYejzInVCLMMi_-1" style="edgeStyle=orthogonalEdgeStyle;rounded=0;orthogonalLoop=1;jettySize=auto;html=1;entryX=0.408;entryY=1.05;entryDx=0;entryDy=0;entryPerimeter=0;" edge="1" parent="1" target="LKZireLHQSJAJ8BlOY7b-5">
          <mxGeometry relative="1" as="geometry">
            <mxPoint x="430" y="210" as="targetPoint" />
            <mxPoint x="430" y="400" as="sourcePoint" />
          </mxGeometry>
        </mxCell>
        <mxCell id="QmqMO9AYejzInVCLMMi_-2" value="Статус&lt;div style=&quot;font-size: 8px;&quot;&gt;дома,&lt;/div&gt;&lt;div style=&quot;font-size: 8px;&quot;&gt;комнаты,&lt;/div&gt;&lt;div style=&quot;font-size: 8px;&quot;&gt;устройства&lt;/div&gt;" style="edgeLabel;html=1;align=center;verticalAlign=middle;resizable=0;points=[];fontSize=8;" connectable="0" vertex="1" parent="QmqMO9AYejzInVCLMMi_-1">
          <mxGeometry x="-0.2908" y="-1" relative="1" as="geometry">
            <mxPoint as="offset" />
          </mxGeometry>
        </mxCell>
        <mxCell id="LKZireLHQSJAJ8BlOY7b-1" value="0" style="swimlane;fontStyle=0;childLayout=stackLayout;horizontal=1;startSize=30;horizontalStack=0;resizeParent=1;resizeParentMax=0;resizeLast=0;collapsible=1;marginBottom=0;whiteSpace=wrap;html=1;rounded=1;" vertex="1" parent="1">
          <mxGeometry x="290" y="400" width="250" height="110" as="geometry" />
        </mxCell>
        <mxCell id="LKZireLHQSJAJ8BlOY7b-2" value="Приложение" style="text;strokeColor=none;fillColor=none;align=center;verticalAlign=middle;spacingLeft=4;spacingRight=4;overflow=hidden;points=[[0,0.5],[1,0.5]];portConstraint=eastwest;rotatable=0;whiteSpace=wrap;html=1;" vertex="1" parent="LKZireLHQSJAJ8BlOY7b-1">
          <mxGeometry y="30" width="250" height="80" as="geometry" />
        </mxCell>
        <mxCell id="LKZireLHQSJAJ8BlOY7b-13" style="edgeStyle=orthogonalEdgeStyle;rounded=0;orthogonalLoop=1;jettySize=auto;html=1;exitX=0.817;exitY=0.99;exitDx=0;exitDy=0;exitPerimeter=0;" edge="1" parent="1" source="LKZireLHQSJAJ8BlOY7b-5" target="LKZireLHQSJAJ8BlOY7b-2">
          <mxGeometry relative="1" as="geometry" />
        </mxCell>
        <mxCell id="LKZireLHQSJAJ8BlOY7b-14" value="Учетные данные" style="edgeLabel;html=1;align=center;verticalAlign=middle;resizable=0;points=[];" connectable="0" vertex="1" parent="LKZireLHQSJAJ8BlOY7b-13">
          <mxGeometry x="-0.1373" y="1" relative="1" as="geometry">
            <mxPoint as="offset" />
          </mxGeometry>
        </mxCell>
        <mxCell id="LKZireLHQSJAJ8BlOY7b-18" style="rounded=0;orthogonalLoop=1;jettySize=auto;html=1;entryX=0.718;entryY=-0.021;entryDx=0;entryDy=0;entryPerimeter=0;" edge="1" parent="1" source="LKZireLHQSJAJ8BlOY7b-5" target="LKZireLHQSJAJ8BlOY7b-1">
          <mxGeometry relative="1" as="geometry">
            <mxPoint x="450" y="350.0000000000001" as="targetPoint" />
          </mxGeometry>
        </mxCell>
        <mxCell id="LKZireLHQSJAJ8BlOY7b-19" value="Данные о доме" style="edgeLabel;html=1;align=center;verticalAlign=middle;resizable=0;points=[];fontSize=9;" connectable="0" vertex="1" parent="LKZireLHQSJAJ8BlOY7b-18">
          <mxGeometry x="-0.2546" y="1" relative="1" as="geometry">
            <mxPoint as="offset" />
          </mxGeometry>
        </mxCell>
        <mxCell id="LKZireLHQSJAJ8BlOY7b-22" style="rounded=0;orthogonalLoop=1;jettySize=auto;html=1;exitX=0.618;exitY=1.027;exitDx=0;exitDy=0;exitPerimeter=0;" edge="1" parent="1" source="LKZireLHQSJAJ8BlOY7b-5">
          <mxGeometry relative="1" as="geometry">
            <mxPoint x="520" y="399" as="targetPoint" />
          </mxGeometry>
        </mxCell>
        <mxCell id="LKZireLHQSJAJ8BlOY7b-23" value="Данные&amp;nbsp;&lt;div&gt;о комнате&lt;/div&gt;" style="edgeLabel;html=1;align=center;verticalAlign=middle;resizable=0;points=[];fontSize=9;" connectable="0" vertex="1" parent="LKZireLHQSJAJ8BlOY7b-22">
          <mxGeometry x="0.0245" relative="1" as="geometry">
            <mxPoint as="offset" />
          </mxGeometry>
        </mxCell>
        <mxCell id="LKZireLHQSJAJ8BlOY7b-5" value="Пользователь" style="html=1;whiteSpace=wrap;" vertex="1" parent="1">
          <mxGeometry x="260" y="150" width="420" height="50" as="geometry" />
        </mxCell>
        <mxCell id="LKZireLHQSJAJ8BlOY7b-10" style="rounded=0;orthogonalLoop=1;jettySize=auto;html=1;exitX=0.558;exitY=-0.05;exitDx=0;exitDy=0;exitPerimeter=0;" edge="1" parent="1" source="LKZireLHQSJAJ8BlOY7b-6" target="LKZireLHQSJAJ8BlOY7b-2">
          <mxGeometry relative="1" as="geometry">
            <mxPoint x="404" y="540" as="targetPoint" />
            <mxPoint x="420" y="670" as="sourcePoint" />
          </mxGeometry>
        </mxCell>
        <mxCell id="LKZireLHQSJAJ8BlOY7b-11" value="Статус" style="edgeLabel;html=1;align=center;verticalAlign=middle;resizable=0;points=[];" connectable="0" vertex="1" parent="LKZireLHQSJAJ8BlOY7b-10">
          <mxGeometry x="0.3594" relative="1" as="geometry">
            <mxPoint as="offset" />
          </mxGeometry>
        </mxCell>
        <mxCell id="LKZireLHQSJAJ8BlOY7b-6" value="Устройства" style="html=1;whiteSpace=wrap;" vertex="1" parent="1">
          <mxGeometry x="320" y="680" width="170" height="50" as="geometry" />
        </mxCell>
        <mxCell id="LKZireLHQSJAJ8BlOY7b-8" style="rounded=0;orthogonalLoop=1;jettySize=auto;html=1;exitX=0.3;exitY=0.992;exitDx=0;exitDy=0;exitPerimeter=0;entryX=0.265;entryY=-0.056;entryDx=0;entryDy=0;entryPerimeter=0;" edge="1" parent="1" source="LKZireLHQSJAJ8BlOY7b-2" target="LKZireLHQSJAJ8BlOY7b-6">
          <mxGeometry relative="1" as="geometry" />
        </mxCell>
        <mxCell id="LKZireLHQSJAJ8BlOY7b-9" value="Команда" style="edgeLabel;html=1;align=center;verticalAlign=middle;resizable=0;points=[];" connectable="0" vertex="1" parent="LKZireLHQSJAJ8BlOY7b-8">
          <mxGeometry x="0.4353" y="1" relative="1" as="geometry">
            <mxPoint as="offset" />
          </mxGeometry>
        </mxCell>
        <mxCell id="LKZireLHQSJAJ8BlOY7b-20" style="rounded=0;orthogonalLoop=1;jettySize=auto;html=1;entryX=0.4;entryY=0;entryDx=0;entryDy=0;exitX=0.308;exitY=1;exitDx=0;exitDy=0;exitPerimeter=0;entryPerimeter=0;" edge="1" parent="1" source="LKZireLHQSJAJ8BlOY7b-5" target="LKZireLHQSJAJ8BlOY7b-1">
          <mxGeometry relative="1" as="geometry">
            <mxPoint x="420" y="400" as="targetPoint" />
            <mxPoint x="390" y="230" as="sourcePoint" />
          </mxGeometry>
        </mxCell>
        <mxCell id="LKZireLHQSJAJ8BlOY7b-21" value="Данные об&lt;div style=&quot;font-size: 9px;&quot;&gt;&amp;nbsp;устройстве&lt;/div&gt;" style="edgeLabel;html=1;align=center;verticalAlign=middle;resizable=0;points=[];fontSize=9;" connectable="0" vertex="1" parent="LKZireLHQSJAJ8BlOY7b-20">
          <mxGeometry x="-0.2546" y="1" relative="1" as="geometry">
            <mxPoint y="22" as="offset" />
          </mxGeometry>
        </mxCell>
        <mxCell id="LKZireLHQSJAJ8BlOY7b-24" style="rounded=0;orthogonalLoop=1;jettySize=auto;html=1;entryX=0.203;entryY=0.006;entryDx=0;entryDy=0;entryPerimeter=0;" edge="1" parent="1" target="LKZireLHQSJAJ8BlOY7b-1">
          <mxGeometry relative="1" as="geometry">
            <mxPoint x="340" y="200" as="sourcePoint" />
            <mxPoint x="399" y="400" as="targetPoint" />
          </mxGeometry>
        </mxCell>
        <mxCell id="LKZireLHQSJAJ8BlOY7b-25" value="Команда&amp;nbsp;&lt;div style=&quot;font-size: 9px;&quot;&gt;устройству&lt;/div&gt;" style="edgeLabel;html=1;align=center;verticalAlign=middle;resizable=0;points=[];fontSize=9;" connectable="0" vertex="1" parent="LKZireLHQSJAJ8BlOY7b-24">
          <mxGeometry x="-0.0301" y="1" relative="1" as="geometry">
            <mxPoint x="8" y="33" as="offset" />
          </mxGeometry>
        </mxCell>
      </root>
    </mxGraphModel>
  </diagram>
  <diagram id="ao0wblw0BTihpamIIlim" name="Логическая DFD">
    <mxGraphModel grid="1" page="1" gridSize="10" guides="1" tooltips="1" connect="1" arrows="1" fold="1" pageScale="1" pageWidth="827" pageHeight="1169" math="0" shadow="0">
      <root>
        <mxCell id="0" />
        <mxCell id="1" parent="0" />
        <mxCell id="bZCvN3GiyBFJwLDnz5H2-7" style="edgeStyle=orthogonalEdgeStyle;rounded=0;orthogonalLoop=1;jettySize=auto;html=1;entryX=0.5;entryY=0;entryDx=0;entryDy=0;" edge="1" parent="1" source="AvzBVFVetmZuN872MikD-1" target="Ae3Xay9nk-50cjcnJ9Og-1">
          <mxGeometry relative="1" as="geometry" />
        </mxCell>
        <mxCell id="bZCvN3GiyBFJwLDnz5H2-10" value="Учетные&amp;nbsp;&lt;div style=&quot;font-size: 9px;&quot;&gt;данные&lt;/div&gt;" style="edgeLabel;html=1;align=center;verticalAlign=middle;resizable=0;points=[];fontSize=9;" connectable="0" vertex="1" parent="bZCvN3GiyBFJwLDnz5H2-7">
          <mxGeometry x="0.3409" y="1" relative="1" as="geometry">
            <mxPoint as="offset" />
          </mxGeometry>
        </mxCell>
        <mxCell id="AvzBVFVetmZuN872MikD-1" value="Пользователь" style="html=1;whiteSpace=wrap;" vertex="1" parent="1">
          <mxGeometry x="198" y="90" width="682" height="50" as="geometry" />
        </mxCell>
        <mxCell id="H8Y5zhSvDfgSVfavocJv-2" style="edgeStyle=orthogonalEdgeStyle;rounded=0;orthogonalLoop=1;jettySize=auto;html=1;entryX=0.273;entryY=1;entryDx=0;entryDy=0;entryPerimeter=0;" edge="1" parent="1" source="cmulp8Pcuh5peM_p6VzR-1" target="0GP5MIEjw6fAWQht4dWx-2">
          <mxGeometry relative="1" as="geometry">
            <mxPoint x="900" y="300" as="targetPoint" />
            <Array as="points">
              <mxPoint x="653" y="550" />
              <mxPoint x="961" y="550" />
              <mxPoint x="961" y="320" />
            </Array>
          </mxGeometry>
        </mxCell>
        <mxCell id="H8Y5zhSvDfgSVfavocJv-4" value="Статус" style="edgeLabel;html=1;align=center;verticalAlign=middle;resizable=0;points=[];" connectable="0" vertex="1" parent="H8Y5zhSvDfgSVfavocJv-2">
          <mxGeometry x="-0.1203" relative="1" as="geometry">
            <mxPoint as="offset" />
          </mxGeometry>
        </mxCell>
        <mxCell id="cmulp8Pcuh5peM_p6VzR-1" value="Устройства" style="html=1;whiteSpace=wrap;" vertex="1" parent="1">
          <mxGeometry x="605" y="436.5" width="95" height="30" as="geometry" />
        </mxCell>
        <mxCell id="7m7Dxivs1ebh5EMATuCg-2" value="3" style="swimlane;fontStyle=0;childLayout=stackLayout;horizontal=1;startSize=30;horizontalStack=0;resizeParent=1;resizeParentMax=0;resizeLast=0;collapsible=1;marginBottom=0;whiteSpace=wrap;html=1;rounded=1;" vertex="1" parent="1">
          <mxGeometry x="495" y="260" width="110" height="70" as="geometry" />
        </mxCell>
        <mxCell id="7m7Dxivs1ebh5EMATuCg-3" value="Управление устройствами" style="text;strokeColor=none;fillColor=none;align=center;verticalAlign=middle;spacingLeft=4;spacingRight=4;overflow=hidden;points=[[0,0.5],[1,0.5]];portConstraint=eastwest;rotatable=0;whiteSpace=wrap;html=1;" vertex="1" parent="7m7Dxivs1ebh5EMATuCg-2">
          <mxGeometry y="30" width="110" height="40" as="geometry" />
        </mxCell>
        <mxCell id="7m7Dxivs1ebh5EMATuCg-4" value="2" style="swimlane;fontStyle=0;childLayout=stackLayout;horizontal=1;startSize=30;horizontalStack=0;resizeParent=1;resizeParentMax=0;resizeLast=0;collapsible=1;marginBottom=0;whiteSpace=wrap;html=1;rounded=1;" vertex="1" parent="1">
          <mxGeometry x="260" y="270" width="120" height="70" as="geometry" />
        </mxCell>
        <mxCell id="7m7Dxivs1ebh5EMATuCg-5" value="Управление домом" style="text;strokeColor=none;fillColor=none;align=center;verticalAlign=middle;spacingLeft=4;spacingRight=4;overflow=hidden;points=[[0,0.5],[1,0.5]];portConstraint=eastwest;rotatable=0;whiteSpace=wrap;html=1;" vertex="1" parent="7m7Dxivs1ebh5EMATuCg-4">
          <mxGeometry y="30" width="120" height="40" as="geometry" />
        </mxCell>
        <mxCell id="7m7Dxivs1ebh5EMATuCg-8" value="4" style="swimlane;fontStyle=0;childLayout=stackLayout;horizontal=1;startSize=30;horizontalStack=0;resizeParent=1;resizeParentMax=0;resizeLast=0;collapsible=1;marginBottom=0;whiteSpace=wrap;html=1;rounded=1;" vertex="1" parent="1">
          <mxGeometry x="740" y="250" width="110" height="70" as="geometry" />
        </mxCell>
        <mxCell id="7m7Dxivs1ebh5EMATuCg-9" value="Управление комнатами&amp;nbsp;" style="text;strokeColor=none;fillColor=none;align=center;verticalAlign=middle;spacingLeft=4;spacingRight=4;overflow=hidden;points=[[0,0.5],[1,0.5]];portConstraint=eastwest;rotatable=0;whiteSpace=wrap;html=1;" vertex="1" parent="7m7Dxivs1ebh5EMATuCg-8">
          <mxGeometry y="30" width="110" height="40" as="geometry" />
        </mxCell>
        <mxCell id="Ae3Xay9nk-50cjcnJ9Og-1" value="1" style="swimlane;fontStyle=0;childLayout=stackLayout;horizontal=1;startSize=30;horizontalStack=0;resizeParent=1;resizeParentMax=0;resizeLast=0;collapsible=1;marginBottom=0;whiteSpace=wrap;html=1;rounded=1;" vertex="1" parent="1">
          <mxGeometry x="70" y="230" width="120" height="60" as="geometry" />
        </mxCell>
        <mxCell id="Ae3Xay9nk-50cjcnJ9Og-2" value="Управление УЗ" style="text;strokeColor=none;fillColor=none;align=center;verticalAlign=middle;spacingLeft=4;spacingRight=4;overflow=hidden;points=[[0,0.5],[1,0.5]];portConstraint=eastwest;rotatable=0;whiteSpace=wrap;html=1;" vertex="1" parent="Ae3Xay9nk-50cjcnJ9Og-1">
          <mxGeometry y="30" width="120" height="30" as="geometry" />
        </mxCell>
        <mxCell id="bZCvN3GiyBFJwLDnz5H2-1" value="D1" style="html=1;dashed=0;whiteSpace=wrap;shape=mxgraph.dfd.dataStoreID;align=left;spacingLeft=3;points=[[0,0],[0.5,0],[1,0],[0,0.5],[1,0.5],[0,1],[0.5,1],[1,1]];" vertex="1" parent="1">
          <mxGeometry x="80" y="390" width="100" height="30" as="geometry" />
        </mxCell>
        <mxCell id="bZCvN3GiyBFJwLDnz5H2-2" value="Пользователи" style="text;html=1;align=center;verticalAlign=middle;whiteSpace=wrap;rounded=0;fontSize=9;" vertex="1" parent="1">
          <mxGeometry x="120" y="390" width="60" height="30" as="geometry" />
        </mxCell>
        <mxCell id="bZCvN3GiyBFJwLDnz5H2-3" value="D3" style="html=1;dashed=0;whiteSpace=wrap;shape=mxgraph.dfd.dataStoreID;align=left;spacingLeft=3;points=[[0,0],[0.5,0],[1,0],[0,0.5],[1,0.5],[0,1],[0.5,1],[1,1]];" vertex="1" parent="1">
          <mxGeometry x="460" y="436.5" width="100" height="30" as="geometry" />
        </mxCell>
        <mxCell id="Zb1L8ogKtBy_HGjwTFtb-10" style="rounded=0;orthogonalLoop=1;jettySize=auto;html=1;exitX=0.88;exitY=-0.003;exitDx=0;exitDy=0;exitPerimeter=0;entryX=0.525;entryY=1.01;entryDx=0;entryDy=0;entryPerimeter=0;" edge="1" parent="1" source="bZCvN3GiyBFJwLDnz5H2-4" target="7m7Dxivs1ebh5EMATuCg-3">
          <mxGeometry relative="1" as="geometry">
            <mxPoint x="560" y="340" as="targetPoint" />
          </mxGeometry>
        </mxCell>
        <mxCell id="Zb1L8ogKtBy_HGjwTFtb-12" value="Данные&lt;div style=&quot;font-size: 8px;&quot;&gt;об устройстве&lt;/div&gt;" style="edgeLabel;html=1;align=center;verticalAlign=middle;resizable=0;points=[];fontSize=8;" connectable="0" vertex="1" parent="Zb1L8ogKtBy_HGjwTFtb-10">
          <mxGeometry x="-0.1862" relative="1" as="geometry">
            <mxPoint as="offset" />
          </mxGeometry>
        </mxCell>
        <mxCell id="bZCvN3GiyBFJwLDnz5H2-4" value="Устройства" style="text;html=1;align=center;verticalAlign=middle;whiteSpace=wrap;rounded=0;fontSize=9;" vertex="1" parent="1">
          <mxGeometry x="500" y="436.5" width="60" height="30" as="geometry" />
        </mxCell>
        <mxCell id="bZCvN3GiyBFJwLDnz5H2-5" value="D2" style="html=1;dashed=0;whiteSpace=wrap;shape=mxgraph.dfd.dataStoreID;align=left;spacingLeft=3;points=[[0,0],[0.5,0],[1,0],[0,0.5],[1,0.5],[0,1],[0.5,1],[1,1]];" vertex="1" parent="1">
          <mxGeometry x="260" y="420" width="100" height="30" as="geometry" />
        </mxCell>
        <mxCell id="bZCvN3GiyBFJwLDnz5H2-6" value="Дома" style="text;html=1;align=center;verticalAlign=middle;whiteSpace=wrap;rounded=0;fontSize=9;" vertex="1" parent="1">
          <mxGeometry x="300" y="420" width="60" height="30" as="geometry" />
        </mxCell>
        <mxCell id="bZCvN3GiyBFJwLDnz5H2-8" style="rounded=0;orthogonalLoop=1;jettySize=auto;html=1;entryX=0.158;entryY=0.006;entryDx=0;entryDy=0;entryPerimeter=0;" edge="1" parent="1">
          <mxGeometry relative="1" as="geometry">
            <mxPoint x="100.54857142857135" y="290" as="sourcePoint" />
            <mxPoint x="99.9999999999999" y="390.18000000000006" as="targetPoint" />
          </mxGeometry>
        </mxCell>
        <mxCell id="vBNiFxtjK7WfwmgehKGc-1" value="Новый&amp;nbsp;&lt;div style=&quot;font-size: 9px;&quot;&gt;пользователь&lt;/div&gt;" style="edgeLabel;html=1;align=center;verticalAlign=middle;resizable=0;points=[];fontSize=9;" connectable="0" vertex="1" parent="bZCvN3GiyBFJwLDnz5H2-8">
          <mxGeometry x="-0.1883" y="1" relative="1" as="geometry">
            <mxPoint as="offset" />
          </mxGeometry>
        </mxCell>
        <mxCell id="bZCvN3GiyBFJwLDnz5H2-9" style="edgeStyle=orthogonalEdgeStyle;rounded=0;orthogonalLoop=1;jettySize=auto;html=1;entryX=0.663;entryY=1.029;entryDx=0;entryDy=0;entryPerimeter=0;" edge="1" parent="1">
          <mxGeometry relative="1" as="geometry">
            <mxPoint x="159.89857142857136" y="389.13" as="sourcePoint" />
            <mxPoint x="159.43000000000006" y="290" as="targetPoint" />
          </mxGeometry>
        </mxCell>
        <mxCell id="vBNiFxtjK7WfwmgehKGc-3" value="Статус&amp;nbsp;&lt;div style=&quot;font-size: 8px;&quot;&gt;добавления&lt;/div&gt;&lt;div style=&quot;font-size: 8px;&quot;&gt;УЗ&lt;/div&gt;" style="edgeLabel;html=1;align=center;verticalAlign=middle;resizable=0;points=[];fontSize=8;" connectable="0" vertex="1" parent="bZCvN3GiyBFJwLDnz5H2-9">
          <mxGeometry x="0.1506" y="1" relative="1" as="geometry">
            <mxPoint as="offset" />
          </mxGeometry>
        </mxCell>
        <mxCell id="MxwQkVzAhV7YjkbANjUc-1" value="D4" style="html=1;dashed=0;whiteSpace=wrap;shape=mxgraph.dfd.dataStoreID;align=left;spacingLeft=3;points=[[0,0],[0.5,0],[1,0],[0,0.5],[1,0.5],[0,1],[0.5,1],[1,1]];" vertex="1" parent="1">
          <mxGeometry x="745" y="436.5" width="100" height="30" as="geometry" />
        </mxCell>
        <mxCell id="MxwQkVzAhV7YjkbANjUc-2" value="Комнаты" style="text;html=1;align=center;verticalAlign=middle;whiteSpace=wrap;rounded=0;fontSize=9;" vertex="1" parent="1">
          <mxGeometry x="785" y="436.5" width="60" height="30" as="geometry" />
        </mxCell>
        <mxCell id="lAwePbPorkW8hIU4H8SI-2" style="edgeStyle=orthogonalEdgeStyle;rounded=0;orthogonalLoop=1;jettySize=auto;html=1;entryX=0.018;entryY=1;entryDx=0;entryDy=0;entryPerimeter=0;" edge="1" parent="1" source="Ae3Xay9nk-50cjcnJ9Og-1" target="AvzBVFVetmZuN872MikD-1">
          <mxGeometry relative="1" as="geometry" />
        </mxCell>
        <mxCell id="lAwePbPorkW8hIU4H8SI-3" value="Статус" style="edgeLabel;html=1;align=center;verticalAlign=middle;resizable=0;points=[];fontSize=9;" connectable="0" vertex="1" parent="lAwePbPorkW8hIU4H8SI-2">
          <mxGeometry x="0.2995" y="-1" relative="1" as="geometry">
            <mxPoint as="offset" />
          </mxGeometry>
        </mxCell>
        <mxCell id="lAwePbPorkW8hIU4H8SI-5" value="" style="endArrow=classic;html=1;rounded=0;exitX=0.194;exitY=-0.004;exitDx=0;exitDy=0;exitPerimeter=0;entryX=0.125;entryY=1.046;entryDx=0;entryDy=0;entryPerimeter=0;" edge="1" parent="1" source="7m7Dxivs1ebh5EMATuCg-4" target="AvzBVFVetmZuN872MikD-1">
          <mxGeometry width="50" height="50" relative="1" as="geometry">
            <mxPoint x="270" y="240" as="sourcePoint" />
            <mxPoint x="320" y="190" as="targetPoint" />
          </mxGeometry>
        </mxCell>
        <mxCell id="Zb1L8ogKtBy_HGjwTFtb-3" value="Статус" style="edgeLabel;html=1;align=center;verticalAlign=middle;resizable=0;points=[];fontSize=9;" connectable="0" vertex="1" parent="lAwePbPorkW8hIU4H8SI-5">
          <mxGeometry x="0.2136" y="-1" relative="1" as="geometry">
            <mxPoint as="offset" />
          </mxGeometry>
        </mxCell>
        <mxCell id="lAwePbPorkW8hIU4H8SI-6" value="" style="endArrow=classic;html=1;rounded=0;" edge="1" parent="1">
          <mxGeometry width="50" height="50" relative="1" as="geometry">
            <mxPoint x="300" y="420" as="sourcePoint" />
            <mxPoint x="300" y="340" as="targetPoint" />
          </mxGeometry>
        </mxCell>
        <mxCell id="Zb1L8ogKtBy_HGjwTFtb-2" value="Данные&lt;div style=&quot;font-size: 9px;&quot;&gt;о доме&lt;/div&gt;" style="edgeLabel;html=1;align=center;verticalAlign=middle;resizable=0;points=[];fontSize=9;" connectable="0" vertex="1" parent="lAwePbPorkW8hIU4H8SI-6">
          <mxGeometry x="0.04" relative="1" as="geometry">
            <mxPoint as="offset" />
          </mxGeometry>
        </mxCell>
        <mxCell id="lAwePbPorkW8hIU4H8SI-7" style="edgeStyle=orthogonalEdgeStyle;rounded=0;orthogonalLoop=1;jettySize=auto;html=1;entryX=0.342;entryY=0.068;entryDx=0;entryDy=0;entryPerimeter=0;" edge="1" parent="1">
          <mxGeometry relative="1" as="geometry">
            <mxPoint x="340" y="340" as="sourcePoint" />
            <mxPoint x="340.5200000000001" y="422.03999999999996" as="targetPoint" />
          </mxGeometry>
        </mxCell>
        <mxCell id="Zb1L8ogKtBy_HGjwTFtb-1" value="Новый&lt;div&gt;дом&lt;/div&gt;" style="edgeLabel;html=1;align=center;verticalAlign=middle;resizable=0;points=[];fontSize=9;" connectable="0" vertex="1" parent="lAwePbPorkW8hIU4H8SI-7">
          <mxGeometry x="-0.0112" relative="1" as="geometry">
            <mxPoint as="offset" />
          </mxGeometry>
        </mxCell>
        <mxCell id="lAwePbPorkW8hIU4H8SI-9" style="edgeStyle=orthogonalEdgeStyle;rounded=0;orthogonalLoop=1;jettySize=auto;html=1;entryX=0.179;entryY=1;entryDx=0;entryDy=0;entryPerimeter=0;startArrow=classic;startFill=1;endArrow=none;endFill=0;" edge="1" parent="1" source="7m7Dxivs1ebh5EMATuCg-4" target="AvzBVFVetmZuN872MikD-1">
          <mxGeometry relative="1" as="geometry" />
        </mxCell>
        <mxCell id="lAwePbPorkW8hIU4H8SI-10" value="Данные&lt;div style=&quot;font-size: 9px;&quot;&gt;о доме&lt;/div&gt;" style="edgeLabel;html=1;align=center;verticalAlign=middle;resizable=0;points=[];fontSize=9;" connectable="0" vertex="1" parent="lAwePbPorkW8hIU4H8SI-9">
          <mxGeometry x="0.1033" relative="1" as="geometry">
            <mxPoint as="offset" />
          </mxGeometry>
        </mxCell>
        <mxCell id="Zb1L8ogKtBy_HGjwTFtb-4" style="edgeStyle=orthogonalEdgeStyle;rounded=0;orthogonalLoop=1;jettySize=auto;html=1;entryX=0.407;entryY=0.003;entryDx=0;entryDy=0;entryPerimeter=0;" edge="1" parent="1">
          <mxGeometry relative="1" as="geometry">
            <mxPoint x="520" y="140" as="sourcePoint" />
            <mxPoint x="520.7699999999998" y="260.21000000000004" as="targetPoint" />
          </mxGeometry>
        </mxCell>
        <mxCell id="Zb1L8ogKtBy_HGjwTFtb-5" value="Данные&lt;div style=&quot;font-size: 9px;&quot;&gt;об устройстве&lt;/div&gt;" style="edgeLabel;html=1;align=center;verticalAlign=middle;resizable=0;points=[];fontSize=9;" connectable="0" vertex="1" parent="Zb1L8ogKtBy_HGjwTFtb-4">
          <mxGeometry x="0.1681" y="1" relative="1" as="geometry">
            <mxPoint as="offset" />
          </mxGeometry>
        </mxCell>
        <mxCell id="Zb1L8ogKtBy_HGjwTFtb-6" style="edgeStyle=orthogonalEdgeStyle;rounded=0;orthogonalLoop=1;jettySize=auto;html=1;entryX=0.22;entryY=-0.027;entryDx=0;entryDy=0;entryPerimeter=0;" edge="1" parent="1" target="bZCvN3GiyBFJwLDnz5H2-3">
          <mxGeometry relative="1" as="geometry">
            <mxPoint x="520" y="330" as="sourcePoint" />
            <mxPoint x="521" y="420" as="targetPoint" />
          </mxGeometry>
        </mxCell>
        <mxCell id="Zb1L8ogKtBy_HGjwTFtb-7" value="Новое&amp;nbsp;&lt;div&gt;устройство&lt;/div&gt;" style="edgeLabel;html=1;align=center;verticalAlign=middle;resizable=0;points=[];fontSize=9;" connectable="0" vertex="1" parent="Zb1L8ogKtBy_HGjwTFtb-6">
          <mxGeometry x="0.1681" y="1" relative="1" as="geometry">
            <mxPoint as="offset" />
          </mxGeometry>
        </mxCell>
        <mxCell id="Zb1L8ogKtBy_HGjwTFtb-8" style="edgeStyle=orthogonalEdgeStyle;rounded=0;orthogonalLoop=1;jettySize=auto;html=1;entryX=0.263;entryY=-0.052;entryDx=0;entryDy=0;entryPerimeter=0;" edge="1" parent="1" source="7m7Dxivs1ebh5EMATuCg-3" target="cmulp8Pcuh5peM_p6VzR-1">
          <mxGeometry relative="1" as="geometry">
            <mxPoint x="630" y="430" as="targetPoint" />
            <Array as="points">
              <mxPoint x="630" y="320" />
            </Array>
          </mxGeometry>
        </mxCell>
        <mxCell id="Zb1L8ogKtBy_HGjwTFtb-9" value="Команда" style="edgeLabel;html=1;align=center;verticalAlign=middle;resizable=0;points=[];fontSize=10;" connectable="0" vertex="1" parent="Zb1L8ogKtBy_HGjwTFtb-8">
          <mxGeometry x="0.0323" relative="1" as="geometry">
            <mxPoint as="offset" />
          </mxGeometry>
        </mxCell>
        <mxCell id="nrLKdqEsdMRNgfkuqU0k-1" style="edgeStyle=orthogonalEdgeStyle;rounded=0;orthogonalLoop=1;jettySize=auto;html=1;" edge="1" parent="1" source="cmulp8Pcuh5peM_p6VzR-1">
          <mxGeometry relative="1" as="geometry">
            <mxPoint x="610" y="280" as="targetPoint" />
            <Array as="points">
              <mxPoint x="652" y="280" />
            </Array>
          </mxGeometry>
        </mxCell>
        <mxCell id="nrLKdqEsdMRNgfkuqU0k-2" value="Статус" style="edgeLabel;html=1;align=center;verticalAlign=middle;resizable=0;points=[];fontSize=9;" connectable="0" vertex="1" parent="nrLKdqEsdMRNgfkuqU0k-1">
          <mxGeometry x="0.1526" y="1" relative="1" as="geometry">
            <mxPoint as="offset" />
          </mxGeometry>
        </mxCell>
        <mxCell id="nrLKdqEsdMRNgfkuqU0k-3" style="edgeStyle=orthogonalEdgeStyle;rounded=0;orthogonalLoop=1;jettySize=auto;html=1;entryX=0.516;entryY=1;entryDx=0;entryDy=0;entryPerimeter=0;" edge="1" parent="1">
          <mxGeometry relative="1" as="geometry">
            <mxPoint x="570.1185714285715" y="260" as="sourcePoint" />
            <mxPoint x="570.0020000000001" y="140" as="targetPoint" />
          </mxGeometry>
        </mxCell>
        <mxCell id="nrLKdqEsdMRNgfkuqU0k-4" value="Статус" style="edgeLabel;html=1;align=center;verticalAlign=middle;resizable=0;points=[];fontSize=10;" connectable="0" vertex="1" parent="nrLKdqEsdMRNgfkuqU0k-3">
          <mxGeometry x="0.059" relative="1" as="geometry">
            <mxPoint as="offset" />
          </mxGeometry>
        </mxCell>
        <mxCell id="nrLKdqEsdMRNgfkuqU0k-5" style="edgeStyle=orthogonalEdgeStyle;rounded=0;orthogonalLoop=1;jettySize=auto;html=1;" edge="1" parent="1">
          <mxGeometry relative="1" as="geometry">
            <mxPoint x="770" y="140" as="sourcePoint" />
            <mxPoint x="771" y="250" as="targetPoint" />
          </mxGeometry>
        </mxCell>
        <mxCell id="nrLKdqEsdMRNgfkuqU0k-6" value="Данные&lt;div style=&quot;font-size: 9px;&quot;&gt;о комнате&lt;/div&gt;" style="edgeLabel;html=1;align=center;verticalAlign=middle;resizable=0;points=[];fontSize=9;" connectable="0" vertex="1" parent="nrLKdqEsdMRNgfkuqU0k-5">
          <mxGeometry x="0.1681" y="1" relative="1" as="geometry">
            <mxPoint as="offset" />
          </mxGeometry>
        </mxCell>
        <mxCell id="nrLKdqEsdMRNgfkuqU0k-7" style="edgeStyle=orthogonalEdgeStyle;rounded=0;orthogonalLoop=1;jettySize=auto;html=1;entryX=0.516;entryY=1;entryDx=0;entryDy=0;entryPerimeter=0;" edge="1" parent="1">
          <mxGeometry relative="1" as="geometry">
            <mxPoint x="810" y="250" as="sourcePoint" />
            <mxPoint x="809.652" y="140" as="targetPoint" />
          </mxGeometry>
        </mxCell>
        <mxCell id="nrLKdqEsdMRNgfkuqU0k-8" value="Статус" style="edgeLabel;html=1;align=center;verticalAlign=middle;resizable=0;points=[];fontSize=10;" connectable="0" vertex="1" parent="nrLKdqEsdMRNgfkuqU0k-7">
          <mxGeometry x="0.059" relative="1" as="geometry">
            <mxPoint as="offset" />
          </mxGeometry>
        </mxCell>
        <mxCell id="nrLKdqEsdMRNgfkuqU0k-9" style="rounded=0;orthogonalLoop=1;jettySize=auto;html=1;exitX=0.695;exitY=-0.021;exitDx=0;exitDy=0;exitPerimeter=0;entryX=0.525;entryY=1.01;entryDx=0;entryDy=0;entryPerimeter=0;" edge="1" parent="1" source="MxwQkVzAhV7YjkbANjUc-2">
          <mxGeometry relative="1" as="geometry">
            <mxPoint x="827" y="320" as="targetPoint" />
            <mxPoint x="827" y="426" as="sourcePoint" />
          </mxGeometry>
        </mxCell>
        <mxCell id="nrLKdqEsdMRNgfkuqU0k-10" value="Данные&lt;div style=&quot;font-size: 8px;&quot;&gt;о комнате&lt;/div&gt;" style="edgeLabel;html=1;align=center;verticalAlign=middle;resizable=0;points=[];fontSize=8;" connectable="0" vertex="1" parent="nrLKdqEsdMRNgfkuqU0k-9">
          <mxGeometry x="-0.1862" relative="1" as="geometry">
            <mxPoint as="offset" />
          </mxGeometry>
        </mxCell>
        <mxCell id="nrLKdqEsdMRNgfkuqU0k-11" style="edgeStyle=orthogonalEdgeStyle;rounded=0;orthogonalLoop=1;jettySize=auto;html=1;entryX=0.265;entryY=-0.037;entryDx=0;entryDy=0;entryPerimeter=0;" edge="1" parent="1" target="MxwQkVzAhV7YjkbANjUc-1">
          <mxGeometry relative="1" as="geometry">
            <mxPoint x="770" y="320" as="sourcePoint" />
            <mxPoint x="771" y="430" as="targetPoint" />
          </mxGeometry>
        </mxCell>
        <mxCell id="nrLKdqEsdMRNgfkuqU0k-12" value="Новая&amp;nbsp;&lt;div&gt;комната&lt;/div&gt;" style="edgeLabel;html=1;align=center;verticalAlign=middle;resizable=0;points=[];fontSize=9;" connectable="0" vertex="1" parent="nrLKdqEsdMRNgfkuqU0k-11">
          <mxGeometry x="0.1681" y="1" relative="1" as="geometry">
            <mxPoint as="offset" />
          </mxGeometry>
        </mxCell>
        <mxCell id="pYfZIijtA8ubwdz0EXMn-1" style="edgeStyle=orthogonalEdgeStyle;rounded=0;orthogonalLoop=1;jettySize=auto;html=1;" edge="1" parent="1" source="0GP5MIEjw6fAWQht4dWx-1">
          <mxGeometry relative="1" as="geometry">
            <mxPoint x="640" y="470" as="targetPoint" />
            <Array as="points">
              <mxPoint x="985" y="600" />
              <mxPoint x="640" y="600" />
            </Array>
          </mxGeometry>
        </mxCell>
        <mxCell id="H8Y5zhSvDfgSVfavocJv-1" value="Команда" style="edgeLabel;html=1;align=center;verticalAlign=middle;resizable=0;points=[];" connectable="0" vertex="1" parent="pYfZIijtA8ubwdz0EXMn-1">
          <mxGeometry x="0.0609" relative="1" as="geometry">
            <mxPoint as="offset" />
          </mxGeometry>
        </mxCell>
        <mxCell id="yZ9qmIfu7opdixLgbkh4-1" style="edgeStyle=orthogonalEdgeStyle;rounded=0;orthogonalLoop=1;jettySize=auto;html=1;entryX=0;entryY=0.5;entryDx=0;entryDy=0;" edge="1" parent="1">
          <mxGeometry relative="1" as="geometry">
            <mxPoint x="1040" y="294.76" as="sourcePoint" />
            <mxPoint x="1160" y="294.76" as="targetPoint" />
          </mxGeometry>
        </mxCell>
        <mxCell id="yZ9qmIfu7opdixLgbkh4-3" value="Новый сценарий" style="edgeLabel;html=1;align=center;verticalAlign=middle;resizable=0;points=[];fontSize=9;" connectable="0" vertex="1" parent="yZ9qmIfu7opdixLgbkh4-1">
          <mxGeometry x="-0.0548" relative="1" as="geometry">
            <mxPoint as="offset" />
          </mxGeometry>
        </mxCell>
        <mxCell id="2YLO5I9DlIHuXVCpaX_h-1" style="edgeStyle=orthogonalEdgeStyle;rounded=0;orthogonalLoop=1;jettySize=auto;html=1;entryX=1;entryY=0.75;entryDx=0;entryDy=0;" edge="1" parent="1" source="0GP5MIEjw6fAWQht4dWx-1" target="AvzBVFVetmZuN872MikD-1">
          <mxGeometry relative="1" as="geometry" />
        </mxCell>
        <mxCell id="H8Y5zhSvDfgSVfavocJv-6" value="Статус" style="edgeLabel;html=1;align=center;verticalAlign=middle;resizable=0;points=[];" connectable="0" vertex="1" parent="2YLO5I9DlIHuXVCpaX_h-1">
          <mxGeometry x="0.1319" relative="1" as="geometry">
            <mxPoint as="offset" />
          </mxGeometry>
        </mxCell>
        <mxCell id="0GP5MIEjw6fAWQht4dWx-1" value="5" style="swimlane;fontStyle=0;childLayout=stackLayout;horizontal=1;startSize=30;horizontalStack=0;resizeParent=1;resizeParentMax=0;resizeLast=0;collapsible=1;marginBottom=0;whiteSpace=wrap;html=1;rounded=1;" vertex="1" parent="1">
          <mxGeometry x="930" y="250" width="110" height="70" as="geometry" />
        </mxCell>
        <mxCell id="0GP5MIEjw6fAWQht4dWx-2" value="Управление&amp;nbsp;&lt;div&gt;сценариями&lt;/div&gt;" style="text;strokeColor=none;fillColor=none;align=center;verticalAlign=middle;spacingLeft=4;spacingRight=4;overflow=hidden;points=[[0,0.5],[1,0.5]];portConstraint=eastwest;rotatable=0;whiteSpace=wrap;html=1;" vertex="1" parent="0GP5MIEjw6fAWQht4dWx-1">
          <mxGeometry y="30" width="110" height="40" as="geometry" />
        </mxCell>
        <mxCell id="pYfZIijtA8ubwdz0EXMn-2" value="D5" style="html=1;dashed=0;whiteSpace=wrap;shape=mxgraph.dfd.dataStoreID;align=left;spacingLeft=3;points=[[0,0],[0.5,0],[1,0],[0,0.5],[1,0.5],[0,1],[0.5,1],[1,1]];" vertex="1" parent="1">
          <mxGeometry x="1160" y="270" width="100" height="30" as="geometry" />
        </mxCell>
        <mxCell id="pYfZIijtA8ubwdz0EXMn-3" value="Сценарии" style="text;html=1;align=center;verticalAlign=middle;whiteSpace=wrap;rounded=0;fontSize=9;" vertex="1" parent="1">
          <mxGeometry x="1200" y="270" width="60" height="30" as="geometry" />
        </mxCell>
        <mxCell id="yZ9qmIfu7opdixLgbkh4-2" style="edgeStyle=orthogonalEdgeStyle;rounded=0;orthogonalLoop=1;jettySize=auto;html=1;entryX=0;entryY=0.5;entryDx=0;entryDy=0;startArrow=block;startFill=1;endArrow=none;endFill=0;" edge="1" parent="1">
          <mxGeometry relative="1" as="geometry">
            <mxPoint x="1040" y="270" as="sourcePoint" />
            <mxPoint x="1160" y="270" as="targetPoint" />
          </mxGeometry>
        </mxCell>
        <mxCell id="yZ9qmIfu7opdixLgbkh4-4" value="Данные о&lt;div&gt;&amp;nbsp;сценарии&lt;/div&gt;" style="edgeLabel;html=1;align=center;verticalAlign=middle;resizable=0;points=[];fontSize=8;" connectable="0" vertex="1" parent="yZ9qmIfu7opdixLgbkh4-2">
          <mxGeometry x="0.223" y="1" relative="1" as="geometry">
            <mxPoint as="offset" />
          </mxGeometry>
        </mxCell>
        <mxCell id="2YLO5I9DlIHuXVCpaX_h-2" style="edgeStyle=orthogonalEdgeStyle;rounded=0;orthogonalLoop=1;jettySize=auto;html=1;entryX=0.168;entryY=-0.037;entryDx=0;entryDy=0;entryPerimeter=0;" edge="1" parent="1" source="AvzBVFVetmZuN872MikD-1" target="0GP5MIEjw6fAWQht4dWx-1">
          <mxGeometry relative="1" as="geometry" />
        </mxCell>
        <mxCell id="H8Y5zhSvDfgSVfavocJv-5" value="Данные&amp;nbsp;&lt;div&gt;о сценарии&lt;/div&gt;" style="edgeLabel;html=1;align=center;verticalAlign=middle;resizable=0;points=[];" connectable="0" vertex="1" parent="2YLO5I9DlIHuXVCpaX_h-2">
          <mxGeometry x="0.0443" y="1" relative="1" as="geometry">
            <mxPoint as="offset" />
          </mxGeometry>
        </mxCell>
      </root>
    </mxGraphModel>
  </diagram>
</mxfile>
